<svg width="38" height="38" viewBox="0 0 38 38" fill="none" xmlns="http://www.w3.org/2000/svg">
<path d="M13.0625 7.125C13.0625 5.55028 13.6881 4.04005 14.8016 2.92655C15.9151 1.81306 17.4253 1.1875 19 1.1875C20.5747 1.1875 22.0849 1.81306 23.1984 2.92655C24.3119 4.04005 24.9375 5.55028 24.9375 7.125V20.1875C24.9375 21.7622 24.3119 23.2724 23.1984 24.3859C22.0849 25.4994 20.5747 26.125 19 26.125C17.4253 26.125 15.9151 25.4994 14.8016 24.3859C13.6881 23.2724 13.0625 21.7622 13.0625 20.1875V7.125Z" fill="#5A66FF"/>
<path d="M9.5 16.625C9.81494 16.625 10.117 16.7501 10.3397 16.9728C10.5624 17.1955 10.6875 17.4976 10.6875 17.8125V20.1875C10.6875 22.3921 11.5633 24.5064 13.1222 26.0653C14.6811 27.6242 16.7954 28.5 19 28.5C21.2046 28.5 23.3189 27.6242 24.8778 26.0653C26.4367 24.5064 27.3125 22.3921 27.3125 20.1875V17.8125C27.3125 17.4976 27.4376 17.1955 27.6603 16.9728C27.883 16.7501 28.1851 16.625 28.5 16.625C28.8149 16.625 29.117 16.7501 29.3397 16.9728C29.5624 17.1955 29.6875 17.4976 29.6875 17.8125V20.1875C29.6875 22.8165 28.7186 25.3533 26.966 27.3129C25.2135 29.2726 22.8002 30.5176 20.1875 30.8101V34.4375H24.9375C25.2524 34.4375 25.5545 34.5626 25.7772 34.7853C25.9999 35.008 26.125 35.3101 26.125 35.625C26.125 35.9399 25.9999 36.242 25.7772 36.4647C25.5545 36.6874 25.2524 36.8125 24.9375 36.8125H13.0625C12.7476 36.8125 12.4455 36.6874 12.2228 36.4647C12.0001 36.242 11.875 35.9399 11.875 35.625C11.875 35.3101 12.0001 35.008 12.2228 34.7853C12.4455 34.5626 12.7476 34.4375 13.0625 34.4375H17.8125V30.8101C15.1998 30.5176 12.7865 29.2726 11.034 27.3129C9.28144 25.3533 8.31254 22.8165 8.3125 20.1875V17.8125C8.3125 17.4976 8.43761 17.1955 8.66031 16.9728C8.88301 16.7501 9.18506 16.625 9.5 16.625Z" fill="url(#paint0_linear_35_13)"/>
<path d="M9.5 16.625C9.81494 16.625 10.117 16.7501 10.3397 16.9728C10.5624 17.1955 10.6875 17.4976 10.6875 17.8125V20.1875C10.6875 22.3921 11.5633 24.5064 13.1222 26.0653C14.6811 27.6242 16.7954 28.5 19 28.5C21.2046 28.5 23.3189 27.6242 24.8778 26.0653C26.4367 24.5064 27.3125 22.3921 27.3125 20.1875V17.8125C27.3125 17.4976 27.4376 17.1955 27.6603 16.9728C27.883 16.7501 28.1851 16.625 28.5 16.625C28.8149 16.625 29.117 16.7501 29.3397 16.9728C29.5624 17.1955 29.6875 17.4976 29.6875 17.8125V20.1875C29.6875 22.8165 28.7186 25.3533 26.966 27.3129C25.2135 29.2726 22.8002 30.5176 20.1875 30.8101V34.4375H24.9375C25.2524 34.4375 25.5545 34.5626 25.7772 34.7853C25.9999 35.008 26.125 35.3101 26.125 35.625C26.125 35.9399 25.9999 36.242 25.7772 36.4647C25.5545 36.6874 25.2524 36.8125 24.9375 36.8125H13.0625C12.7476 36.8125 12.4455 36.6874 12.2228 36.4647C12.0001 36.242 11.875 35.9399 11.875 35.625C11.875 35.3101 12.0001 35.008 12.2228 34.7853C12.4455 34.5626 12.7476 34.4375 13.0625 34.4375H17.8125V30.8101C15.1998 30.5176 12.7865 29.2726 11.034 27.3129C9.28144 25.3533 8.31254 22.8165 8.3125 20.1875V17.8125C8.3125 17.4976 8.43761 17.1955 8.66031 16.9728C8.88301 16.7501 9.18506 16.625 9.5 16.625Z" fill="#5A66FF"/>
<defs>
<linearGradient id="paint0_linear_35_13" x1="19" y1="16.625" x2="19" y2="36.8125" gradientUnits="userSpaceOnUse">
<stop stop-color="#66E7FE"/>
<stop offset="1" stop-color="#5A66FF"/>
</linearGradient>
</defs>
</svg>
